<?xml version="1.0" encoding="utf-8"?>
<!-- Generator: Adobe Illustrator 19.2.1, SVG Export Plug-In . SVG Version: 6.00 Build 0)  -->
<svg version="1.1" id="Ebene_1" xmlns="http://www.w3.org/2000/svg" xmlns:xlink="http://www.w3.org/1999/xlink" x="0px" y="0px"
	 viewBox="0 0 201 201" style="enable-background:new 0 0 201 201;" xml:space="preserve">
<style type="text/css">
	.st0{fill:#FFFFFF;}
</style>
<g>
	<path d="M197.5,182.6c-2.6,0-5.1,0-7.8,0c0,2.8,0,5.3,0,8.1c-2.7,0-5.2,0-8,0c0,2.9,0,5.5,0,8.2c-24.3,0-48.3,0-72.6,0
		c0-2.6,0-5.2,0-8.1c-2.8,0-5.3,0-8,0c0-27.5,0-54.7,0-82.2c2.5,0,5,0,7.8,0c0-2.8,0-5.4,0-8.1c24.3,0,48.3,0,72.6,0
		c0,2.7,0,5.2,0,8c2.7,0,5.3,0,8,0c0,2.8,0,5.4,0,8.3c2.8,0,5.3,0,8,0c0,8.4,0,16.5,0,24.8c-2.6,0-5.1,0-7.8,0c0,2.7,0,5.3,0,8
		c2.6,0,5.1,0,7.8,0C197.5,160.7,197.5,171.5,197.5,182.6z M173.3,158.2c-8.1,0-15.9,0-23.8,0c0,2.7,0,5.2,0,7.7c8,0,15.9,0,23.8,0
		C173.3,163.3,173.3,160.8,173.3,158.2z M109.2,124.8c2.7,0,5.2,0,8,0c0-2.7,0-5.2,0-8c2.8,0,5.3,0,7.7,0c0-2.8,0-5.3,0-7.8
		c-5.3,0-10.5,0-15.7,0C109.2,114.3,109.2,119.4,109.2,124.8z M173.2,133.2c0-2.8,0-5.3,0-7.8c-8,0-15.8,0-23.8,0
		c0,2.3-0.1,4.4,0.1,6.5c0,0.5,1,1.2,1.5,1.2C158.3,133.2,165.6,133.2,173.2,133.2z"/>
	<path d="M12.5,10.1c0-2.6,0-5.2,0-8c26.8,0,53.5,0,80.5,0c0,2.6,0,5.1,0,8c2.8,0,5.3,0,8,0c0,2.9,0,5.5,0,8.4c-2.6,0-5.1,0-7.8,0
		c0,2.8,0,5.4,0,8.1c-13.5,0-26.7,0-40.2,0c0,2.8,0,5.4,0,8.2c13.3,0,26.6,0,40.1,0c0,2.8,0,5.3,0,8.1c2.7,0,5.3,0,7.9,0
		c0,2.9,0,5.5,0,8.3c-2.6,0-5,0-7.7,0c0,2.8,0,5.4,0,8.3c-13.6,0-26.9,0-40.3,0c0,2.8,0,5.3,0,8.1c13.3,0,26.6,0,40.1,0
		c0,2.8,0,5.4,0,8.3c2.8,0,5.3,0,8,0c0,5.6,0,10.9,0,16.4c-2.6,0-5,0-7.7,0c0,2.8,0,5.4,0,8.2c-27,0-53.8,0-80.7,0c0-2.6,0-5.2,0-8
		c-2.7,0-5.3,0-8.1,0c0-27.6,0-54.8,0-82.4C7.2,10,9.8,10,12.5,10.1c0.1,5.4,0.1,10.9,0.1,16.2c2.8,0,5.2,0,7.9,0c0-2.7,0-5.2,0-8
		c2.7,0,5.3,0,7.7,0c0-2.9,0-5.4,0-8.2C22.8,10.1,17.6,10.1,12.5,10.1z"/>
	<path class="st0" d="M173.3,158.2c0,2.6,0,5.1,0,7.7c-7.9,0-15.7,0-23.8,0c0-2.6,0-5.1,0-7.7C157.4,158.2,165.2,158.2,173.3,158.2z
		"/>
	<path class="st0" d="M109.2,124.8c0-5.4,0-10.5,0-15.9c5.2,0,10.4,0,15.7,0c0,2.5,0,5,0,7.8c-2.5,0-5,0-7.7,0c0,2.8,0,5.3,0,8
		C114.4,124.8,111.9,124.8,109.2,124.8z"/>
	<path class="st0" d="M173.2,133.2c-7.6,0-14.9,0-22.3-0.1c-0.5,0-1.4-0.8-1.5-1.2c-0.2-2.1-0.1-4.3-0.1-6.5c8,0,15.8,0,23.8,0
		C173.2,127.9,173.2,130.4,173.2,133.2z"/>
	<path class="st0" d="M12.5,10.1c5.2,0,10.4,0,15.7,0c0,2.8,0,5.4,0,8.2c-2.5,0-5,0-7.7,0c0,2.8,0,5.3,0,8c-2.7,0-5.1,0-7.9,0
		C12.5,20.9,12.5,15.5,12.5,10.1C12.5,10,12.5,10.1,12.5,10.1z"/>
</g>
</svg>
