<?xml version="1.0" encoding="utf-8"?>
<!-- Generator: Adobe Illustrator 19.2.1, SVG Export Plug-In . SVG Version: 6.00 Build 0)  -->
<svg version="1.1" id="Ebene_1" xmlns="http://www.w3.org/2000/svg" xmlns:xlink="http://www.w3.org/1999/xlink" x="0px" y="0px"
	 viewBox="0 0 201 201" style="enable-background:new 0 0 201 201;" xml:space="preserve">
<style type="text/css">
	.st0{fill:#FFFFFF;stroke:#000000;stroke-miterlimit:10;}
</style>
<rect class="st0" width="201" height="201"/>
<path d="M192.3,177c-2.5,0-4.9,0-7.5,0c0,2.7,0,5.1,0,7.8c-2.6,0-5,0-7.7,0c0,2.7,0,5.2,0,7.8c-23.2,0-46.2,0-69.4,0
	c0-2.5,0-5,0-7.7c-2.6,0-5,0-7.6,0c0-26.3,0-52.3,0-78.5c2.4,0,4.8,0,7.5,0c0-2.7,0-5.2,0-7.8c23.2,0,46.2,0,69.3,0
	c0,2.5,0,4.9,0,7.6c2.6,0,5,0,7.7,0c0,2.7,0,5.2,0,7.9c2.6,0,5,0,7.6,0c0,8,0,15.7,0,23.7c-2.5,0-4.9,0-7.4,0c0,2.6,0,5,0,7.7
	c2.5,0,4.9,0,7.4,0C192.3,156,192.3,166.4,192.3,177z M169.1,153.6c-7.7,0-15.2,0-22.7,0c0,2.6,0,5,0,7.4c7.7,0,15.2,0,22.7,0
	C169.1,158.5,169.1,156.1,169.1,153.6z M107.8,121.8c2.6,0,5,0,7.6,0c0-2.6,0-5,0-7.7c2.6,0,5,0,7.4,0c0-2.7,0-5.1,0-7.5
	c-5.1,0-10,0-15,0C107.8,111.7,107.8,116.6,107.8,121.8z M169,129.8c0-2.7,0-5.1,0-7.5c-7.6,0-15.1,0-22.7,0c0,2.2-0.1,4.2,0.1,6.3
	c0,0.4,0.9,1.2,1.4,1.2C154.8,129.8,161.8,129.8,169,129.8z"/>
<path d="M17.4,16.1c0-2.5,0-5,0-7.6c25.6,0,51.1,0,76.9,0c0,2.4,0,4.9,0,7.6c2.7,0,5.1,0,7.6,0c0,2.7,0,5.2,0,8c-2.5,0-4.8,0-7.5,0
	c0,2.7,0,5.1,0,7.8c-12.9,0-25.5,0-38.4,0c0,2.7,0,5.2,0,7.9c12.7,0,25.4,0,38.3,0c0,2.6,0,5,0,7.7c2.6,0,5,0,7.6,0
	c0,2.8,0,5.3,0,7.9c-2.4,0-4.8,0-7.4,0c0,2.7,0,5.1,0,7.9c-13,0-25.7,0-38.5,0c0,2.7,0,5.1,0,7.7c12.7,0,25.4,0,38.3,0
	c0,2.7,0,5.2,0,7.9c2.7,0,5.1,0,7.6,0c0,5.3,0,10.4,0,15.7c-2.5,0-4.8,0-7.4,0c0,2.7,0,5.1,0,7.8c-25.8,0-51.4,0-77.1,0
	c0-2.5,0-4.9,0-7.7c-2.6,0-5.1,0-7.7,0c0-26.3,0-52.3,0-78.7C12.3,16,14.9,16,17.4,16.1c0.1,5.1,0.1,10.4,0.1,15.5c2.7,0,5,0,7.6,0
	c0-2.6,0-5,0-7.7c2.6,0,5,0,7.4,0c0-2.7,0-5.2,0-7.9C27.3,16.1,22.3,16.1,17.4,16.1z"/>
</svg>
