<?xml version="1.0" encoding="utf-8"?>
<!-- Generator: Adobe Illustrator 19.2.1, SVG Export Plug-In . SVG Version: 6.00 Build 0)  -->
<svg version="1.1" id="Ebene_1" xmlns="http://www.w3.org/2000/svg" xmlns:xlink="http://www.w3.org/1999/xlink" x="0px" y="0px"
	 viewBox="0 0 708 321" style="enable-background:new 0 0 708 321;" xml:space="preserve">
<style type="text/css">
	.st0{fill:#FFFFFF;}
</style>
<g>
	<path d="M141.2,3v10.4v3h3h10.1v7.4h-10.1h-3v3v10.4H78.7h-3v3v13.4v3h3h62.6V67v3h3h10.1v7.4h-10.1h-3v3v10.4H78.7h-3v3V107v3h3
		h62.6v10.4v3h3h10.1v20.8h-10.1h-3v3v10.4H16.1v-10.4v-3h-3H3V16.4h7.1v23.8v3h3h13.1h3v-3V29.8h10.1h3v-3V13.4v-3h-3H16.1V3H141.2
		 M144.2,0H13.1v13.4h26.2v13.4H26.2v13.4H13.1V13.4H0v133.8h13.1v13.4h131.1v-13.4h13.1v-26.8h-13.1V107H78.7V93.6h65.6V80.3h13.1
		V66.9h-13.1V53.5H78.7V40.1h65.6V26.8h13.1V13.4h-13.1L144.2,0L144.2,0z"/>
</g>
<g>
	<path d="M246.1,3v10.4v3h3h10.1v127.8h-10.1h-3v3v10.4h-46.4v-10.4v-3h-3h-10.1V16.4h7.1v23.8v3h3h13.1h3v-3V29.8h10.1h3v-3V13.4
		v-3h-3h-23.2V3H246.1 M249.1,0h-52.4v13.4h26.2v13.4h-13.1v13.4h-13.1V13.4h-13.1v133.8h13.1v13.4h52.4v-13.4h13.1V13.4h-13.1V0
		L249.1,0z"/>
</g>
<g>
	<path class="st0" d="M246.1,3v10.4v3h3h10.1v127.8h-10.1h-3v3v10.4h-46.4v-10.4v-3h-3h-10.1V16.4h7.1v23.8v3h3h13.1h3v-3V29.8h10.1
		h3v-3V13.4v-3h-3h-23.2V3H246.1"/>
</g>
<g>
	<path d="M429.7,3v10.4v3h3h10.1v20.8h-10.1h-3v3v10.4h-10.1h-3v3V64h-10.1h-3v3v13.4v3h3h10.1v10.4v3h3h10.1V107v3h3h10.1v34.1
		h-10.1h-3v3v10.4h-20.2v-10.4v-3h-3h-10.1v-10.4v-3h-3h-10.1v-10.4v-3h-3h-13.1h-3v3v23.8H354h-3v3v10.4h-46.4v-10.4v-3h-3h-10.1
		V16.4h7.1v23.8v3h3h13.1h3v-3V29.8h10.1h3v-3V13.4v-3h-3h-23.2V3H351v10.4v3h3h10.1v23.8v3h3h13.1h3v-3V29.8h10.1h3v-3V16.4h10.1h3
		v-3V3H429.7 M432.7,0h-26.2v13.4h-13.1v13.4h-13.1v13.4h-13.1V13.4H354V0h-52.4v13.4h26.2v13.4h-13.1v13.4h-13.1V13.4h-13.1v133.8
		h13.1v13.4H354v-13.4h13.1v-26.8h13.1v13.4h13.1v13.4h13.1v13.4h26.2v-13.4h13.1V107h-13.1V93.6h-13.1V80.3h-13.1V66.9h13.1V53.5
		h13.1V40.1h13.1V13.4h-13.1L432.7,0L432.7,0z"/>
</g>
<g>
	<path d="M613.2,3v10.4v3h3h10.1v7.4h-10.1h-3v3v10.4h-62.6h-3v3v13.4v3h3h62.6V67v3h3h10.1v7.4h-10.1h-3v3v10.4h-62.6h-3v3V107v3h3
		h62.6v10.4v3h3h10.1v20.8h-10.1h-3v3v10.4H488.1v-10.4v-3h-3H475V16.4h7.1v23.8v3h3h13.1h3v-3V29.8h10.1h3v-3V13.4v-3h-3h-23.2V3
		H613.2 M616.2,0H485.1v13.4h26.2v13.4h-13.1v13.4h-13.1V13.4H472v133.8h13.1v13.4h131.1v-13.4h13.1v-26.8h-13.1V107h-65.6V93.6
		h65.6V80.3h13.1V66.9h-13.1V53.5h-65.6V40.1h65.6V26.8h13.1V13.4h-13.1V0L616.2,0z"/>
</g>
<g>
	<path d="M128.1,163.5v10.4v3h3h10.1v10.4v3h3h10.1v34.1h-10.1h-3v3v13.4v3h3h10.1v47.5h-10.1h-3v3v10.4h-10.1h-3v3V318h-112v-10.4
		v-3h-3H3V176.9h7.1v23.8v3h3h13.1h3v-3v-10.4h10.1h3v-3v-13.4v-3h-3H16.1v-7.4L128.1,163.5 M75.7,217h3H118h3v-3v-13.4v-3h-3H78.7
		h-3v3V214V217 M75.7,270.5h3H118h3v-3v-13.4v-3h-3H78.7h-3v3v13.4V270.5 M131.1,160.5h-118v13.4h26.2v13.4H26.2v13.4H13.1v-26.8H0
		v133.7h13.1V321h118v-13.4h13.1v-13.4h13.1v-53.5h-13.1v-13.4h13.1v-40.1h-13.1v-13.4h-13.1V160.5L131.1,160.5z M78.7,214v-13.4
		H118V214H78.7L78.7,214z M78.7,267.5v-13.4H118v13.4H78.7L78.7,267.5z"/>
</g>
<g>
	<path d="M324.8,163.5v10.4v3h3h10.1v114.4h-10.1h-3v3v10.4h-10.1h-3v3V318h-98.9v-10.4v-3h-3h-10.1v-10.4v-3h-3h-10.1V176.9h7.1
		v23.8v3h3h13.1h3v-3v-10.4h10.1h3v-3v-13.4v-3h-3h-23.2v-7.4h46.4v10.4v3h3h10.1v90.6v3h3h26.2h3v-3v-90.6h10.1h3v-3v-10.4H324.8
		 M327.8,160.5h-26.2v13.4h-13.1v93.6h-26.2v-93.6h-13.1v-13.4h-52.4v13.4H223v13.4h-13.1v13.4h-13.1v-26.8h-13.1v120.4h13.1v13.4
		h13.1V321h104.9v-13.4h13.1v-13.4H341V173.9h-13.1L327.8,160.5L327.8,160.5z"/>
</g>
<g>
	<path d="M508.3,163.5v10.4v3h3h10.1v7.4h-10.1h-3v3v10.4h-62.6h-3v3V214v3h3h62.6v10.4v3h3h10.1v7.4h-10.1h-3v3v10.4h-62.6h-3v3
		v50.5h-10.1h-3v3V318h-46.4v-10.4v-3h-3h-10.1V176.9h7.1v23.8v3h3h13.1h3v-3v-10.4h10.1h3v-3v-13.4v-3h-3h-23.2v-7.4L508.3,163.5
		 M511.3,160.5H380.2v13.4h26.2v13.4h-13.1v13.4h-13.1v-26.8h-13.1v133.7h13.1V321h52.4v-13.4h13.1v-53.5h65.6v-13.4h13.1v-13.4
		h-13.1V214h-65.6v-13.4h65.6v-13.4h13.1v-13.4h-13.1L511.3,160.5L511.3,160.5z"/>
</g>
<g>
	<path d="M691.9,163.5v10.4v3h3H705v7.4h-10.1h-3v3v10.4h-62.6h-3v3V214v3h3h62.6v10.4v3h3H705v7.4h-10.1h-3v3v10.4h-62.6h-3v3v50.5
		h-10.1h-3v3V318h-46.4v-10.4v-3h-3h-10.1V176.9h7.1v23.8v3h3h13.1h3v-3v-10.4H590h3v-3v-13.4v-3h-3h-23.2v-7.4L691.9,163.5
		 M694.9,160.5H563.8v13.4H590v13.4h-13.1v13.4h-13.1v-26.8h-13.1v133.7h13.1V321h52.4v-13.4h13.1v-53.5h65.6v-13.4H708v-13.4h-13.1
		V214h-65.6v-13.4h65.6v-13.4H708v-13.4h-13.1V160.5L694.9,160.5z"/>
</g>
<g>
	<path class="st0" d="M141.2,3v10.4v3h3h10.1v7.4h-10.1h-3v3v10.4H78.7h-3v3v13.4v3h3h62.6V67v3h3h10.1v7.4h-10.1h-3v3v10.4H78.7h-3
		v3V107v3h3h62.6v10.4v3h3h10.1v20.8h-10.1h-3v3v10.4H16.1v-10.4v-3h-3H3V16.4h7.1v23.8v3h3h13.1h3v-3V29.8h10.1h3v-3V13.4v-3h-3
		H16.1V3H141.2"/>
</g>
<g>
	<path class="st0" d="M128.1,163.5v10.4v3h3h10.1v10.4v3h3h10.1v34.1h-10.1h-3v3v13.4v3h3h10.1v47.5h-10.1h-3v3v10.4h-10.1h-3v3V318
		h-112v-10.4v-3h-3H3V176.9h7.1v23.8v3h3h13.1h3v-3v-10.4h10.1h3v-3v-13.4v-3h-3H16.1v-7.4L128.1,163.5 M75.7,217h3H118h3v-3v-13.4
		v-3h-3H78.7h-3v3V214V217 M75.7,270.5h3H118h3v-3v-13.4v-3h-3H78.7h-3v3v13.4V270.5 M78.7,214v-13.4H118V214H78.7L78.7,214z
		 M78.7,267.5v-13.4H118v13.4H78.7L78.7,267.5z"/>
</g>
<g>
	<path class="st0" d="M324.8,163.5v10.4v3h3h10.1v114.4h-10.1h-3v3v10.4h-10.1h-3v3V318h-98.9v-10.4v-3h-3h-10.1v-10.4v-3h-3h-10.1
		V176.9h7.1v23.8v3h3h13.1h3v-3v-10.4h10.1h3v-3v-13.4v-3h-3h-23.2v-7.4h46.4v10.4v3h3h10.1v90.6v3h3h26.2h3v-3v-90.6h10.1h3v-3
		v-10.4H324.8"/>
</g>
<g>
	<path class="st0" d="M508.3,163.5v10.4v3h3h10.1v7.4h-10.1h-3v3v10.4h-62.6h-3v3V214v3h3h62.6v10.4v3h3h10.1v7.4h-10.1h-3v3v10.4
		h-62.6h-3v3v50.5h-10.1h-3v3V318h-46.4v-10.4v-3h-3h-10.1V176.9h7.1v23.8v3h3h13.1h3v-3v-10.4h10.1h3v-3v-13.4v-3h-3h-23.2v-7.4
		L508.3,163.5"/>
</g>
<g>
	<path class="st0" d="M691.9,163.5v10.4v3h3H705v7.4h-10.1h-3v3v10.4h-62.6h-3v3V214v3h3h62.6v10.4v3h3H705v7.4h-10.1h-3v3v10.4
		h-62.6h-3v3v50.5h-10.1h-3v3V318h-46.4v-10.4v-3h-3h-10.1V176.9h7.1v23.8v3h3h13.1h3v-3v-10.4H590h3v-3v-13.4v-3h-3h-23.2v-7.4
		L691.9,163.5"/>
</g>
<polyline class="st0" points="613.2,3 613.2,13.4 613.2,16.4 616.2,16.4 626.3,16.4 626.3,23.8 616.2,23.8 613.2,23.8 613.2,26.8 
	613.2,37.2 550.6,37.2 547.6,37.2 547.6,40.2 547.6,53.6 547.6,56.6 550.6,56.6 613.2,56.6 613.2,67 613.2,70 616.2,70 626.3,70 
	626.3,77.4 616.2,77.4 613.2,77.4 613.2,80.4 613.2,90.8 550.6,90.8 547.6,90.8 547.6,93.8 547.6,107 547.6,110 550.6,110 
	613.2,110 613.2,120.4 613.2,123.4 616.2,123.4 626.3,123.4 626.3,144.2 616.2,144.2 613.2,144.2 613.2,147.2 613.2,157.6 
	488.1,157.6 488.1,147.2 488.1,144.2 485.1,144.2 475,144.2 475,16.4 482.1,16.4 482.1,40.2 482.1,43.2 485.1,43.2 498.2,43.2 
	501.2,43.2 501.2,40.2 501.2,29.8 511.3,29.8 514.3,29.8 514.3,26.8 514.3,13.4 514.3,10.4 511.3,10.4 488.1,10.4 488.1,3 613.2,3 
	"/>
<g>
	<path class="st0" d="M429.7,3v10.4v3h3h10.1v20.8h-10.1h-3v3v10.4h-10.1h-3v3V64h-10.1h-3v3v13.4v3h3h10.1v10.4v3h3h10.1V107v3h3
		h10.1v34.1h-10.1h-3v3v10.4h-20.2v-10.4v-3h-3h-10.1v-10.4v-3h-3h-10.1v-10.4v-3h-3h-13.1h-3v3v23.8H354h-3v3v10.4h-46.4v-10.4v-3
		h-3h-10.1V16.4h7.1v23.8v3h3h13.1h3v-3V29.8h10.1h3v-3V13.4v-3h-3h-23.2V3H351v10.4v3h3h10.1v23.8v3h3h13.1h3v-3V29.8h10.1h3v-3
		V16.4h10.1h3v-3V3H429.7"/>
</g>
</svg>
